# xmcd
#
# Track frame offsets:
#	150
#	24912
#	45062
#	61375
#	77695
#	96182
#	111640
#	126457
#	141175
#	162092
#	181930
#
# Disc length: 2647 seconds
#
# Revision: 1
# Processed by: cddbd v1.4PL0 Copyright (c) Steve Scherf et al.
# Submitted via: MusicManager 7.0.3.0 
#
DISCID=8b0a550b
DTITLE=Carbo, Chuck  - Drawers Trouble
DYEAR=1993
DGENRE=Blues
TTITLE0=Meet Me With Your Black Drawers On
TTITLE1=Drawers Trouble
TTITLE2=Average Kind of Guy
TTITLE3=Changing Scenes
TTITLE4=Hurt Coming On
TTITLE5=Meet Me at the Station
TTITLE6=New York City Blues
TTITLE7=Can't Straighten Your Mind
TTITLE8=After Tears
TTITLE9=Rock Me In Your Arms
TTITLE10=Take Off That Dress
EXTD=ID3G:   0
EXTT0=
EXTT1=
EXTT2=
EXTT3=
EXTT4=
EXTT5=
EXTT6=
EXTT7=
EXTT8=
EXTT9=
EXTT10=
PLAYORDER=
